<mxfile host="Electron" modified="2024-05-20T07:18:59.101Z" agent="Mozilla/5.0 (X11; Linux x86_64) AppleWebKit/537.36 (KHTML, like Gecko) draw.io/24.4.0 Chrome/120.0.6099.109 Electron/28.1.0 Safari/537.36" etag="gPmNxFJVIr139CBzkRRV" version="24.4.0" type="device">
  <diagram name="Page-1" id="c7fe5PSGoWE2MjarKNGJ">
    <mxGraphModel dx="784" dy="482" grid="1" gridSize="10" guides="1" tooltips="1" connect="1" arrows="1" fold="1" page="1" pageScale="1" pageWidth="850" pageHeight="1100" background="none" math="0" shadow="1">
      <root>
        <mxCell id="0" />
        <mxCell id="1" parent="0" />
        <mxCell id="GCyTXeJHTvriHmn7dtxQ-21" style="edgeStyle=orthogonalEdgeStyle;rounded=1;orthogonalLoop=1;jettySize=auto;html=1;entryX=0.5;entryY=0;entryDx=0;entryDy=0;curved=0;exitX=1;exitY=0.5;exitDx=0;exitDy=0;" edge="1" parent="1" source="GCyTXeJHTvriHmn7dtxQ-2" target="GCyTXeJHTvriHmn7dtxQ-16">
          <mxGeometry relative="1" as="geometry">
            <mxPoint x="240" y="80" as="sourcePoint" />
          </mxGeometry>
        </mxCell>
        <mxCell id="GCyTXeJHTvriHmn7dtxQ-33" style="edgeStyle=orthogonalEdgeStyle;rounded=1;orthogonalLoop=1;jettySize=auto;html=1;entryX=0;entryY=0.5;entryDx=0;entryDy=0;curved=0;exitX=1;exitY=0.5;exitDx=0;exitDy=0;startArrow=classic;startFill=1;" edge="1" parent="1" source="GCyTXeJHTvriHmn7dtxQ-37" target="GCyTXeJHTvriHmn7dtxQ-6">
          <mxGeometry relative="1" as="geometry" />
        </mxCell>
        <mxCell id="GCyTXeJHTvriHmn7dtxQ-34" style="edgeStyle=orthogonalEdgeStyle;rounded=1;orthogonalLoop=1;jettySize=auto;html=1;entryX=0;entryY=0.5;entryDx=0;entryDy=0;curved=0;exitX=1;exitY=0.5;exitDx=0;exitDy=0;startArrow=classic;startFill=1;" edge="1" parent="1" source="GCyTXeJHTvriHmn7dtxQ-37" target="GCyTXeJHTvriHmn7dtxQ-5">
          <mxGeometry relative="1" as="geometry" />
        </mxCell>
        <mxCell id="GCyTXeJHTvriHmn7dtxQ-35" style="edgeStyle=orthogonalEdgeStyle;rounded=1;orthogonalLoop=1;jettySize=auto;html=1;entryX=0;entryY=0.5;entryDx=0;entryDy=0;curved=0;exitX=1;exitY=0.5;exitDx=0;exitDy=0;startArrow=classic;startFill=1;" edge="1" parent="1" source="GCyTXeJHTvriHmn7dtxQ-37" target="GCyTXeJHTvriHmn7dtxQ-4">
          <mxGeometry relative="1" as="geometry" />
        </mxCell>
        <mxCell id="GCyTXeJHTvriHmn7dtxQ-36" style="edgeStyle=orthogonalEdgeStyle;rounded=1;orthogonalLoop=1;jettySize=auto;html=1;entryX=0;entryY=0.5;entryDx=0;entryDy=0;curved=0;exitX=1;exitY=0.5;exitDx=0;exitDy=0;startArrow=classic;startFill=1;" edge="1" parent="1" source="GCyTXeJHTvriHmn7dtxQ-37" target="GCyTXeJHTvriHmn7dtxQ-3">
          <mxGeometry relative="1" as="geometry" />
        </mxCell>
        <mxCell id="GCyTXeJHTvriHmn7dtxQ-38" style="edgeStyle=orthogonalEdgeStyle;rounded=1;orthogonalLoop=1;jettySize=auto;html=1;entryX=0.5;entryY=0;entryDx=0;entryDy=0;startArrow=classic;startFill=1;" edge="1" parent="1" source="GCyTXeJHTvriHmn7dtxQ-2" target="GCyTXeJHTvriHmn7dtxQ-37">
          <mxGeometry relative="1" as="geometry" />
        </mxCell>
        <mxCell id="GCyTXeJHTvriHmn7dtxQ-2" value="Colorful&lt;div&gt;Pixels&lt;/div&gt;" style="rounded=0;whiteSpace=wrap;html=1;gradientColor=#292929;" vertex="1" parent="1">
          <mxGeometry x="40" width="120" height="80" as="geometry" />
        </mxCell>
        <mxCell id="GCyTXeJHTvriHmn7dtxQ-22" style="edgeStyle=orthogonalEdgeStyle;rounded=1;orthogonalLoop=1;jettySize=auto;html=1;entryX=0.5;entryY=0;entryDx=0;entryDy=0;curved=0;" edge="1" parent="1" source="GCyTXeJHTvriHmn7dtxQ-3" target="GCyTXeJHTvriHmn7dtxQ-16">
          <mxGeometry relative="1" as="geometry" />
        </mxCell>
        <mxCell id="GCyTXeJHTvriHmn7dtxQ-3" value="Color System" style="rounded=1;whiteSpace=wrap;html=1;" vertex="1" parent="1">
          <mxGeometry x="200" y="90" width="120" height="60" as="geometry" />
        </mxCell>
        <mxCell id="GCyTXeJHTvriHmn7dtxQ-23" style="edgeStyle=orthogonalEdgeStyle;rounded=1;orthogonalLoop=1;jettySize=auto;html=1;curved=0;" edge="1" parent="1" source="GCyTXeJHTvriHmn7dtxQ-4" target="GCyTXeJHTvriHmn7dtxQ-16">
          <mxGeometry relative="1" as="geometry" />
        </mxCell>
        <mxCell id="GCyTXeJHTvriHmn7dtxQ-4" value="Tool System" style="rounded=1;whiteSpace=wrap;html=1;" vertex="1" parent="1">
          <mxGeometry x="200" y="170" width="120" height="60" as="geometry" />
        </mxCell>
        <mxCell id="GCyTXeJHTvriHmn7dtxQ-24" style="edgeStyle=orthogonalEdgeStyle;rounded=1;orthogonalLoop=1;jettySize=auto;html=1;entryX=0.5;entryY=0;entryDx=0;entryDy=0;curved=0;" edge="1" parent="1" source="GCyTXeJHTvriHmn7dtxQ-5" target="GCyTXeJHTvriHmn7dtxQ-16">
          <mxGeometry relative="1" as="geometry" />
        </mxCell>
        <mxCell id="GCyTXeJHTvriHmn7dtxQ-5" value="Layer System" style="rounded=1;whiteSpace=wrap;html=1;" vertex="1" parent="1">
          <mxGeometry x="200" y="250" width="120" height="60" as="geometry" />
        </mxCell>
        <mxCell id="GCyTXeJHTvriHmn7dtxQ-25" style="edgeStyle=orthogonalEdgeStyle;rounded=1;orthogonalLoop=1;jettySize=auto;html=1;entryX=0;entryY=0.5;entryDx=0;entryDy=0;curved=0;" edge="1" parent="1" source="GCyTXeJHTvriHmn7dtxQ-6" target="GCyTXeJHTvriHmn7dtxQ-16">
          <mxGeometry relative="1" as="geometry" />
        </mxCell>
        <mxCell id="GCyTXeJHTvriHmn7dtxQ-6" value="Key Map" style="rounded=1;whiteSpace=wrap;html=1;" vertex="1" parent="1">
          <mxGeometry x="200" y="330" width="120" height="60" as="geometry" />
        </mxCell>
        <mxCell id="GCyTXeJHTvriHmn7dtxQ-40" style="edgeStyle=orthogonalEdgeStyle;rounded=1;orthogonalLoop=1;jettySize=auto;html=1;entryX=0;entryY=0.5;entryDx=0;entryDy=0;curved=0;startArrow=classic;startFill=1;" edge="1" parent="1" source="GCyTXeJHTvriHmn7dtxQ-16" target="GCyTXeJHTvriHmn7dtxQ-17">
          <mxGeometry relative="1" as="geometry" />
        </mxCell>
        <mxCell id="GCyTXeJHTvriHmn7dtxQ-41" style="edgeStyle=orthogonalEdgeStyle;rounded=1;orthogonalLoop=1;jettySize=auto;html=1;entryX=0;entryY=0.5;entryDx=0;entryDy=0;curved=0;startArrow=classic;startFill=1;" edge="1" parent="1" source="GCyTXeJHTvriHmn7dtxQ-16" target="GCyTXeJHTvriHmn7dtxQ-39">
          <mxGeometry relative="1" as="geometry" />
        </mxCell>
        <mxCell id="GCyTXeJHTvriHmn7dtxQ-42" style="edgeStyle=orthogonalEdgeStyle;rounded=1;orthogonalLoop=1;jettySize=auto;html=1;entryX=0.5;entryY=1;entryDx=0;entryDy=0;startArrow=classic;startFill=1;curved=0;" edge="1" parent="1" source="GCyTXeJHTvriHmn7dtxQ-16" target="GCyTXeJHTvriHmn7dtxQ-37">
          <mxGeometry relative="1" as="geometry" />
        </mxCell>
        <mxCell id="GCyTXeJHTvriHmn7dtxQ-16" value="Project" style="rounded=1;whiteSpace=wrap;html=1;" vertex="1" parent="1">
          <mxGeometry x="360" y="410" width="80" height="60" as="geometry" />
        </mxCell>
        <mxCell id="GCyTXeJHTvriHmn7dtxQ-17" value="Canvas" style="rounded=1;whiteSpace=wrap;html=1;" vertex="1" parent="1">
          <mxGeometry x="480" y="410" width="80" height="20" as="geometry" />
        </mxCell>
        <mxCell id="GCyTXeJHTvriHmn7dtxQ-37" value="Input-Output" style="rounded=1;whiteSpace=wrap;html=1;" vertex="1" parent="1">
          <mxGeometry x="40" y="170" width="120" height="60" as="geometry" />
        </mxCell>
        <mxCell id="GCyTXeJHTvriHmn7dtxQ-39" value="Tool" style="rounded=1;whiteSpace=wrap;html=1;" vertex="1" parent="1">
          <mxGeometry x="480" y="450" width="80" height="20" as="geometry" />
        </mxCell>
      </root>
    </mxGraphModel>
  </diagram>
</mxfile>
